<svg
      width="120"
      height="120"
      viewBox="0 0 50 50"
      fill="none"
      xmlns="http://www.w3.org/2000/svg"
    >
      <path
        fillRule="evenodd"
        clipRule="evenodd"
        d="M25.0019 0C38.8076 0 50 11.1934 50 25.0007C50 38.8081 38.8076 50 25.0019 50C11.1939 50 0 38.8081 0 25.0007C0 11.1934 11.1939 0 25.0019 0ZM26.5647 2.03713C25.9676 2.48142 24.8236 2.82681 24.4535 3.06731C23.7162 3.5543 23.0434 4.1327 22.3279 4.72234C21.3899 5.49703 20.3403 6.16384 19.2914 6.83289C20.123 6.92355 20.9531 7.56938 20.8565 8.39952C21.5428 8.13579 22.1556 7.57837 22.7992 7.1633C23.251 6.8741 23.3926 6.84863 23.4952 6.39685C23.5806 6.01849 23.4548 5.59293 23.5671 5.20334C23.92 5.18461 24.3291 5.25279 24.6842 5.19285C25.0116 5.13666 25.4132 4.78902 25.7346 4.89166C26.1654 5.02577 25.9893 5.34794 26.1691 5.73529C26.3692 6.16384 26.7123 6.22078 27.0727 6.4875C27.6975 6.95427 28.1545 7.12734 28.9105 6.86661C29.7721 6.56917 30.1984 5.71056 31.0727 6.25824C31.0502 6.93629 31.6736 7.0232 31.9126 7.52143C32.0931 7.89679 31.992 8.6018 31.9703 9.01912C31.771 8.98615 31.517 9.07606 31.3177 9.04384C31.242 9.1832 31.2166 9.30832 31.242 9.47015C31.6601 9.47015 32.0212 9.57654 32.2542 9.93317C32.225 10.0545 32.2153 10.1662 32.207 10.2696C34.4914 12.01 35.2863 14.4165 35.5949 15.9539C35.7748 16.856 35.8759 18.4923 35.9306 20.2784C36.0272 20.166 36.1516 20.0769 36.2715 20.0162L36.4206 20.2424C36.479 20.2724 36.5255 20.4792 36.485 20.7579C36.3277 20.7856 36.1261 20.7931 35.9456 20.7796C35.9553 21.1797 35.9636 21.5873 35.9688 21.9904C36.0565 21.89 36.1996 21.8443 36.4206 21.8997L36.5719 22.2002C36.5704 23.5173 36.1801 23.3225 35.9808 22.8617C36.0072 25.3978 35.9703 27.6784 35.9688 28.0485L35.9688 28.0688C35.9688 28.6719 34.7671 29.048 34.8427 29.4991C34.9918 30.4019 35.2188 34.5413 35.2188 36.1971C35.2188 37.8521 31.1529 43.7972 30.8539 44.3224C30.5535 44.8499 29.8747 44.3224 29.8747 44.3224C29.1982 38.3796 28.8221 26.4895 29.0469 26.1133C29.2716 25.7372 33.6388 25.0592 33.7871 24.8329C33.9392 24.6074 33.7871 21.2966 33.3361 21.2209C32.8843 21.1453 27.0143 22.6504 26.9408 23.0273C26.8652 23.4034 27.3926 25.1349 27.3926 25.1349C28.2946 27.3158 28.1448 28.5213 28.1448 28.5213C27.4683 28.9724 25.5098 30.7787 25.5098 30.7787C25.1337 30.4768 22.8749 28.8967 22.5744 28.7461C22.274 28.5948 22.3497 28.2201 22.3497 28.2201C23.1019 26.5651 23.9313 23.5533 23.7065 22.9516C23.478 22.35 17.4588 20.7692 17.0071 21.2966C16.5575 21.8226 16.858 24.9843 17.0827 25.2847C17.3082 25.5859 21.521 25.8114 21.7481 26.1133C21.9736 26.4145 21.8222 44.1733 21.8222 44.1733C21.8222 44.1733 21.2214 45.0769 20.7711 44.8499C18.8981 43.9148 15.7259 37.4753 15.7259 36.7238V31.4553C15.7259 31.026 15.5686 30.5959 15.3828 30.2228C15.3783 30.5862 15.3536 30.972 15.3536 31.3047C15.3536 32.0854 15.1902 32.6211 14.3743 32.735C13.5562 32.8488 13.6956 31.6066 12.9239 33.3328C12.344 34.629 11.6247 35.8712 10.9864 37.1726C10.7017 37.7555 10.5661 38.3406 10.3219 38.9048C10.0596 39.5117 9.66256 39.9222 9.25873 40.4849C9.08866 40.7179 8.89237 41.0071 8.7238 41.2821C8.93732 41.4918 9.15459 41.6949 9.37186 41.8972C10.5773 41.5301 11.8338 41.8949 11.815 43.4211C11.8105 43.5859 11.7993 43.7215 11.7761 43.8377C15.5184 46.4712 20.0766 48.0206 24.9981 48.0206C26.1497 48.0206 27.2825 47.9329 28.3875 47.7703C28.1973 47.6886 28.0616 47.5433 28.0579 47.2698C27.8137 47.2256 27.5844 47.1432 27.3289 47.1732C27.1836 46.2591 28.1508 46.6105 28.5194 46.8817C28.7344 47.0428 29.1517 47.32 29.429 47.5913C36.4475 46.2232 42.3228 41.6619 45.4913 35.4846C44.3142 35.5955 42.9956 35.2066 42.2165 34.4657C41.695 33.9719 41.8478 33.3268 41.9917 32.6555C42.1812 31.7692 42.3386 31.8037 43.2616 31.7452C43.1163 31.2665 43.0428 30.4326 43.7868 30.6154C43.6804 29.5268 44.4469 28.7386 44.7758 30.1007C44.832 30.3367 44.7158 30.5532 44.8439 30.763C44.9661 30.9615 45.3422 30.9106 45.4568 31.1526C45.6486 31.5557 45.3459 32.2307 44.9526 32.2959C44.8724 32.7387 45.3969 33.1238 45.6021 33.4707C45.7452 33.7172 45.9101 34.0543 46.0247 34.3735C46.0517 34.3098 46.0831 34.2454 46.1116 34.1817C46.0711 33.3478 45.9648 32.5671 45.9198 31.7565C45.8891 31.202 45.7707 30.727 45.6778 30.2513C45.5707 29.7051 45.3691 29.4024 45.2373 28.9529C45.0844 28.4299 45.253 27.7122 45.2275 27.1705C45.1946 26.5831 45.0342 26.1478 45.0005 25.5732C44.9413 24.5655 45.1114 23.566 45.032 22.5935C44.8612 22.6692 44.6948 22.6954 44.5607 22.5643C44.3277 22.3403 44.4753 22.0488 44.6866 21.9604C44.7181 21.3513 44.9466 19.6513 44.0348 19.7802C44.0041 19.1973 43.9501 18.7035 43.8647 18.1529C43.7868 18.0637 43.6317 17.9236 43.5583 17.8457C42.7147 17.8037 41.6561 18.1072 41.2507 17.292C41.0147 16.8155 40.9638 15.8033 41.253 15.3463C41.4643 15.0106 41.9183 15.0204 42.0846 14.7462C42.2517 14.4727 42.1812 14.2637 42.2187 13.9205C42.2517 13.6186 41.8441 13.3226 42.4412 13.3938C42.8098 13.4373 42.7709 13.9872 43.2579 13.9093C43.2324 13.7864 43.3006 13.6073 43.2788 13.4807C43.6205 13.465 44.4888 13.7377 45.0979 13.7767C44.9833 13.5714 44.8694 13.3683 44.7465 13.1668C44.2895 13.0289 43.834 12.8769 43.5583 12.6521C42.8915 12.1067 43.32 11.3956 42.8353 10.8914C42.176 10.2051 41.976 10.9431 42.0636 11.5133C42.1198 11.8991 42.7072 13.0567 41.7767 12.781C41.749 12.2438 41.7804 11.6871 41.7549 11.1514C41.0065 11.102 40.7001 10.2089 40.799 9.5683C41.0627 9.56006 41.3406 9.55331 41.6036 9.54582C41.6411 9.42744 41.6411 9.19893 41.6081 9.06782C41.5999 9.05733 41.5916 9.04909 41.5826 9.0416C41.3242 9.0341 41.0552 9.02586 40.799 9.02062C40.784 9.03485 40.799 8.81533 40.799 8.81533C41.0784 8.78012 41.1174 8.76813 41.1346 8.58757C41.0859 8.53512 41.032 8.48567 40.9773 8.43548C40.7158 8.42873 40.4521 8.43023 40.1958 8.41749C40.2041 8.20621 40.2655 8.01741 40.3285 7.82861C36.6206 4.51705 31.8369 2.39076 26.5647 2.03713ZM17.8761 7.75518C17.1779 8.22045 16.4991 8.70819 15.8772 9.25213C14.7849 10.2029 13.4206 10.8352 12.1132 11.535C11.6285 11.7957 11.1767 11.9396 10.7639 12.3569C10.3526 12.7712 10.3915 13.6156 9.72099 13.6313C9.87383 14.2884 9.40633 14.146 8.95605 14.2225C8.32821 14.3281 8.54174 14.3341 8.20834 14.678C7.6809 15.2204 7.11824 15.8078 6.69943 16.4079C6.12928 17.2148 6.64923 17.4022 6.84927 18.1356C6.99237 18.6668 6.71067 18.7815 6.54809 19.0954C6.39845 19.3821 6.24815 19.4763 6.18249 19.8378L6.18094 19.8467L6.18261 19.8325C6.19806 19.6676 6.17221 19.4769 6.16285 19.3166L6.16075 19.2737C5.76517 19.5397 5.80787 20.5564 5.19277 20.6246C4.98524 20.647 3.48083 19.4865 3.67712 20.6081C3.53477 20.6508 3.23808 20.6508 3.09723 20.6081C3.07925 20.2889 3.31825 20.1181 3.31375 19.8678C3.30252 19.3089 3.26206 19.5262 2.9354 19.264C2.86348 19.2063 2.7953 19.1771 2.72862 19.1546C2.24089 21.0209 1.97866 22.9793 1.97866 24.9992C1.97866 31.011 4.28323 36.4833 8.0585 40.5823C8.2915 39.7364 8.74327 38.8546 9.27297 38.3077C10.1585 37.3869 10.4425 36.272 11.0471 35.2179C11.3573 34.6799 11.6322 34.3638 11.8922 33.8071C12.1597 33.2234 12.2473 32.6758 12.4698 32.0584C12.6759 31.4987 13.0984 31.1856 13.246 30.6296C13.3891 30.0775 13.736 29.589 13.9226 29.048C14.3077 28.89 14.5871 28.8562 14.7991 28.8997C14.7347 27.6567 14.6748 22.8348 14.6748 17.8352C14.6748 15.3208 15.7199 13.1226 17.2985 11.4548C17.1509 11.4526 16.9981 11.4346 16.8677 11.4264C16.8033 11.1994 16.6841 11.0001 16.6175 10.7723C16.329 10.6861 16.1155 10.7693 16.0129 11.0525C15.1805 10.9618 15.5858 9.86574 16.3927 9.92118C16.6257 8.84081 16.6931 9.40796 17.5173 8.97566C18.0679 8.68647 17.8529 8.20696 17.8761 7.75518ZM38.3928 36.6303C38.1291 36.1088 38.4273 35.3596 39.0558 35.5185L39.2806 35.7462C39.6724 36.2332 40.062 36.3478 39.9474 37.0881C39.4087 37.1136 38.688 37.2065 38.3928 36.6303ZM47.3455 19.4535C46.9882 19.6461 46.5267 19.7974 46.2944 20.2424C45.7362 21.3011 46.3079 22.5058 46.3581 23.6252C46.3911 24.3272 46.5581 24.8464 46.6585 25.508C46.7634 26.2032 46.5911 26.9352 46.7267 27.6178C46.9672 28.8173 46.6975 30.4161 47.0683 31.5534C47.6849 29.4743 48.0198 27.2769 48.0198 24.9992C48.0198 23.0872 47.7831 21.2307 47.3455 19.4535ZM6.18083 19.8468L6.17733 19.8768C6.1752 19.8913 6.17268 19.9056 6.16974 19.9195L6.17578 19.8776L6.18083 19.8468ZM24.9981 1.97869C20.4414 1.97869 16.1972 3.30856 12.6234 5.59218C12.8287 6.08742 12.532 6.83514 11.6015 6.6853C11.594 6.56542 11.582 6.43356 11.5768 6.3017C11.0973 6.64484 10.6358 7.00372 10.19 7.38207C10.426 7.49595 10.5541 7.71248 10.45 8.11481C9.86784 8.27664 9.33665 9.01462 9.32092 9.54582C8.72005 9.73463 8.50653 9.43644 8.42561 9.03111C7.29281 10.2059 6.28437 11.4983 5.41978 12.8903C5.84983 13.2297 5.63331 13.2792 6.32333 13.2432C6.85302 13.2155 7.40743 13.3766 7.7738 13.0357C8.21209 12.6214 7.80302 12.0887 8.04876 11.6601C8.40239 11.0458 8.74702 11.5605 8.59793 12.0587C8.46457 12.5067 7.78354 12.6566 8.03377 13.1638C8.13866 12.775 8.86015 12.2752 9.17557 12.0347C9.7165 11.6242 10.2754 11.3507 10.8763 10.9281C11.3633 10.5827 11.8997 10.594 12.4159 10.2381C12.9081 9.89796 13.2767 9.611 13.7772 9.32106C14.3256 8.99964 14.8456 8.49392 15.4247 8.20097C16.0593 7.8818 16.6549 7.91402 17.2303 7.47123C17.7847 7.04417 18.3549 6.59914 18.8149 6.07843C19.3596 5.45732 19.6113 5.26552 20.3171 4.96658C21.4731 4.47884 22.3632 3.71089 23.4038 3.01412C23.953 2.64775 24.5209 2.54211 25.07 2.16974C25.1667 2.10381 25.2521 2.04238 25.3315 1.98618C25.2191 1.98469 25.1105 1.97869 24.9981 1.97869Z"
        fill="red"
      />
    </svg>